<svg id="Layer_1" enable-background="new 0 0 512.003 512.003" height="512" viewBox="0 0 512.003 512.003" width="512" xmlns="http://www.w3.org/2000/svg"><path d="m273.305 482.743c-29.27 0-57.099-15.435-69.276-41.156-31.205-65.914-43.805-136.773-37.453-210.608 4.572-53.137 16.903-107.439 42.262-159.279 18.812-38.455 59.284-51.462 97.849-37.563 38.567 13.9 57.289 53.253 41.816 87.898-29.282 65.563-54.091 165.045-5.99 266.648 21.128 44.631-15.525 94.06-69.208 94.06z" fill="#ffb531"/><path d="m221.141 99.341c7.055-14.421 17.155-25.263 29.059-32.449 8.407-5.075 14.589-15.193 24.356-16.594 13.284-1.906 30.544 6.475 44.434 11.481 14.306 5.156 25.874 13.819 33.986 24.44-11.035-61.752-110.046-84.208-144.138-14.518-25.36 51.839-37.69 106.141-42.262 159.279-6.352 73.835 6.248 144.693 37.453 210.608.562 1.187 1.168 2.344 1.795 3.486-46.411-116.626-31.626-249.774 15.317-345.733z" fill="#ffe188"/><path d="m218.986 389.72c-15.125-46.757-24.193-95.52-20.684-147.085 2.525-37.11 9.335-75.034 23.34-111.238 10.39-26.857 32.741-35.94 54.04-26.233 21.3 9.707 31.073 28.759 22.528 52.955-16.172 45.789-35.134 126.12-2.743 194.655 38.361 81.167-56.229 99.555-76.481 36.946z" fill="#ff8257"/><ellipse cx="256.596" cy="160.468" fill="#ffe188" rx="15.162" ry="15.043"/><ellipse cx="238.677" cy="255.57" fill="#ffe188" rx="15.162" ry="15.043"/><ellipse cx="258.612" cy="371.057" fill="#ffe188" rx="15.162" ry="15.043"/><ellipse cx="278.684" cy="60.201" fill="#ffe188" rx="5.005" ry="3.833"/><g fill="#231f20"><path d="m305.752 160.782c9.515-26.94-.737-51.041-26.753-62.898-24.646-11.23-52.4-1.471-64.819 30.627-3.905 10.095-7.397 20.69-10.379 31.491-1.176 4.259 1.323 8.665 5.583 9.84 4.26 1.179 8.665-1.324 9.84-5.583 2.841-10.29 6.165-20.376 9.878-29.977 7.714-19.939 24.043-30.599 43.261-21.84 18.604 8.478 25.104 23.753 18.302 43.011-22.812 64.591-31.466 139.306-2.432 200.738 33.611 71.118-44.901 82.803-61.636 31.066-16.988-52.516-24.497-101.488-19.32-156.344.416-4.398-2.813-8.301-7.212-8.717-4.405-.423-8.302 2.813-8.717 7.212-5.371 56.826 2.271 107.887 20.025 162.773 23.805 73.589 134.402 48.317 91.326-42.828-31.643-66.952-11.669-146.884 3.053-188.571z"/><path d="m385.223 442.114-30.102-13.246c2.724-13.307 1.473-27.028-3.74-39.86l29.161-5.724c4.335-.851 7.16-5.056 6.309-9.391-.851-4.336-5.056-7.16-9.391-6.309l-32.732 6.425c-9.494-22.574-15.411-44.994-18.53-66.883l29.089-3.117c4.394-.471 7.573-4.414 7.103-8.807-.471-4.393-4.413-7.569-8.807-7.103l-29.174 3.126c-1.806-21.586-1.028-42.551 1.544-62.525 31.05 3.421 28.82 3.197 29.462 3.197 4.025 0 7.491-3.03 7.942-7.125.484-4.392-2.684-8.344-7.076-8.828l-27.893-3.073c3.91-21.847 9.816-42.308 16.586-60.856 28.02 6.537 26.229 6.206 27.525 6.206 9.439 0 11.036-13.641 1.811-15.793l-23.493-5.48c5.51-13.413 16.171-31.585 8.501-58.77l23.816-10.104c4.067-1.726 5.966-6.422 4.24-10.489-1.725-4.068-6.422-5.965-10.489-4.24l-23.615 10.018c-7.614-13.955-19.844-25.475-34.876-32.903l11.337-18.236c2.333-3.752 1.182-8.686-2.57-11.018-3.752-2.333-8.686-1.181-11.018 2.57l-12.955 20.839c-17.543-5.075-35.594-5.134-51.804-.113l-10.365-20.16c-2.021-3.929-6.845-5.477-10.773-3.457-3.929 2.021-5.477 6.843-3.457 10.773l9.818 19.096c-12.74 6.965-23.315 17.291-31.165 30.446l-25.142-12.047c-3.985-1.911-8.762-.228-10.672 3.757-1.909 3.984-.228 8.762 3.757 10.672l24.816 11.892c-7.082 15.266-13.281 31.178-18.578 47.696l-25.214-7.298c-4.243-1.229-8.681 1.216-9.909 5.46-1.229 4.244 1.216 8.68 5.46 9.909l25.066 7.255c-5.518 19.625-9.823 40.039-12.882 61.178l-26.131-5.164c-4.331-.855-8.542 1.962-9.399 6.297-.856 4.334 1.963 8.542 6.297 9.399l27.186 5.373c-3.235 28.479-4.189 55.927-1.762 86.109l-28.563.817c-4.417.126-7.895 3.809-7.768 8.225.124 4.339 3.68 7.771 7.992 7.771 2.459 0-8.553.248 29.938-.853 2.902 24.25 7.944 48.075 15.117 71.399l-23.979 10.192c-7.992 3.396-5.543 15.364 3.133 15.364 2.852 0 2.468-.591 25.867-10.306 4.827 13.758 10.395 27.336 16.727 40.712 5.276 11.144 13.272 20.701 23.103 28.158l-14.088 24.894c-2.176 3.845-.823 8.726 3.022 10.902 3.82 2.163 8.712.847 10.902-3.022l13.792-24.371c19.734 9.734 43.013 11.851 64.522 5.732l7.756 19.638c1.634 4.137 6.297 6.114 10.38 4.502 4.109-1.623 6.124-6.271 4.502-10.38l-7.702-19.501c16.644-8.219 29.828-21.46 37.138-37.41l28.652 12.607c4.036 1.776 8.762-.049 10.544-4.1 1.781-4.044-.055-8.765-4.099-10.544zm-48.591-7.039c-20.533 51.129-101.699 53.094-125.373 3.088-30.59-64.617-42.942-134.093-36.713-206.499 4.964-57.699 18.919-110.336 41.478-156.449 17.707-36.195 54.811-44.558 84.85-34.697 36.838 12.093 54.155 47.287 40.325 78.254-29.967 67.096-55.318 168.982-5.916 273.333 6.49 13.714 6.97 28.973 1.349 42.97z"/><path d="m256.596 183.51c12.771 0 23.162-10.337 23.162-23.042s-10.391-23.042-23.162-23.042c-12.772 0-23.163 10.337-23.163 23.042s10.391 23.042 23.163 23.042zm0-30.085c3.949 0 7.162 3.159 7.162 7.042s-3.213 7.042-7.162 7.042c-3.95 0-7.163-3.159-7.163-7.042s3.213-7.042 7.163-7.042z"/><path d="m215.514 255.57c0 12.706 10.391 23.042 23.163 23.042 12.771 0 23.162-10.337 23.162-23.042 0-12.706-10.391-23.043-23.162-23.043-12.772 0-23.163 10.337-23.163 23.043zm23.163-7.043c3.949 0 7.162 3.16 7.162 7.043s-3.213 7.042-7.162 7.042c-3.95 0-7.163-3.159-7.163-7.042s3.213-7.043 7.163-7.043z"/><path d="m235.45 371.057c0 12.706 10.391 23.042 23.162 23.042 12.772 0 23.163-10.337 23.163-23.042s-10.391-23.042-23.163-23.042c-12.772-.001-23.162 10.336-23.162 23.042zm23.162-7.043c3.95 0 7.163 3.159 7.163 7.042s-3.213 7.042-7.163 7.042c-3.949 0-7.162-3.159-7.162-7.042s3.213-7.042 7.162-7.042z"/><circle cx="203.89" cy="196.093" r="7.999"/></g></svg>