<svg id="Layer_1" enable-background="new 0 0 512.004 512.004" height="512" viewBox="0 0 512.004 512.004" width="512" xmlns="http://www.w3.org/2000/svg"><g fill="#846069"><path d="m247.496 42.412c-2.902 0-5.703-1.584-7.121-4.343l-13.579-26.409c-2.02-3.93-.473-8.752 3.457-10.773 3.928-2.02 8.752-.473 10.773 3.457l13.578 26.409c2.765 5.379-1.22 11.659-7.108 11.659z"/><path d="m306.687 42.139c-6.18 0-10.127-6.851-6.786-12.225l16.249-26.136c2.332-3.751 7.265-4.903 11.018-2.57 3.752 2.333 4.903 7.266 2.57 11.018l-16.249 26.136c-1.515 2.437-4.129 3.777-6.802 3.777z"/><path d="m349.368 81.716c-8.682 0-11.122-11.975-3.128-15.367l30.651-13.003c4.067-1.725 8.764.172 10.489 4.24 1.726 4.067-.173 8.764-4.24 10.489-33.58 14.246-31.527 13.641-33.772 13.641z"/><path d="m372.506 158.223c-1.312 0 .692.376-34.368-7.803-4.303-1.004-6.977-5.306-5.974-9.608 1.004-4.302 5.306-6.976 9.608-5.974l32.543 7.592c9.23 2.153 7.628 15.793-1.809 15.793z"/><path d="m355.422 231.898c-.645 0 1.976.267-37.19-4.049-4.392-.484-7.56-4.436-7.076-8.828.483-4.392 4.428-7.568 8.828-7.076l36.305 4c4.392.484 7.56 4.436 7.076 8.828-.451 4.094-3.917 7.125-7.943 7.125z"/><path d="m208.84 79.703c-2.551 0-1.078.35-35.447-16.121-3.984-1.91-5.666-6.688-3.757-10.672 1.91-3.984 6.687-5.667 10.672-3.757l31.995 15.333c7.636 3.66 5.037 15.217-3.463 15.217z"/><path d="m184.892 141.022c-1.627 0 .478.466-34.923-9.78-4.244-1.229-6.689-5.665-5.46-9.909 1.228-4.244 5.666-6.689 9.909-5.46l32.695 9.463c8.848 2.561 6.997 15.686-2.221 15.686z"/><path d="m168.917 217.166c-1.121 0 1.637.478-35.998-6.959-4.334-.856-7.154-5.064-6.297-9.399.856-4.335 5.068-7.153 9.399-6.297l34.438 6.806c4.334.856 7.154 5.064 6.297 9.399-.753 3.811-4.097 6.45-7.839 6.45z"/><path d="m212.776 510.003c-6.05 0-9.994-6.573-6.955-11.941l17.697-31.272c2.177-3.845 7.059-5.198 10.902-3.022 3.845 2.176 5.199 7.057 3.022 10.902l-17.697 31.272c-1.471 2.6-4.18 4.061-6.969 4.061z"/><path d="m313.26 512.004c-3.188 0-6.201-1.918-7.443-5.063l-10.532-26.667c-1.623-4.109.393-8.757 4.502-10.379 4.109-1.625 8.757.393 10.38 4.501l10.532 26.667c2.079 5.266-1.83 10.941-7.439 10.941z"/><path d="m382.004 457.438c-2.367 0-.294.607-39.525-16.656-4.044-1.779-5.88-6.5-4.1-10.544 1.779-4.044 6.5-5.88 10.544-4.1l36.308 15.976c7.893 3.473 5.399 15.324-3.227 15.324z"/><path d="m339.947 391.101c-3.747 0-7.092-2.646-7.841-6.46-.851-4.335 1.974-8.54 6.309-9.391l39.052-7.666c4.335-.851 8.54 1.973 9.391 6.309.851 4.335-1.974 8.54-6.309 9.391-42.354 8.313-39.483 7.817-40.602 7.817z"/><path d="m317.212 308.042c-4.036 0-7.505-3.045-7.945-7.148-.471-4.393 2.709-8.336 7.103-8.807l37.22-3.988c4.394-.466 8.336 2.71 8.807 7.103s-2.709 8.336-7.103 8.807c-39.956 4.28-37.446 4.033-38.082 4.033z"/><path d="m130.004 318.502c-4.313 0-7.868-3.433-7.992-7.771-.126-4.417 3.352-8.099 7.768-8.225l34.977-1c4.41-.148 8.099 3.352 8.225 7.768.126 4.417-3.352 8.099-7.768 8.225-.001-.001-35.133 1.003-35.21 1.003z"/><path d="m154.212 414.604c-8.662 0-11.133-11.965-3.133-15.364l30.679-13.04c4.064-1.729 8.764.167 10.492 4.233 1.729 4.066-.167 8.764-4.233 10.492-33.639 14.298-31.556 13.679-33.805 13.679z"/></g><path d="m273.313 482.743c-29.27 0-57.099-15.435-69.276-41.156-31.205-65.914-43.805-136.773-37.453-210.608 4.572-53.137 16.903-107.439 42.262-159.279 18.812-38.455 59.284-51.462 97.849-37.563 38.567 13.9 57.289 53.253 41.816 87.898-29.282 65.563-54.091 165.045-5.99 266.648 21.128 44.631-15.525 94.06-69.208 94.06z" fill="#ffb531"/><path d="m221.149 99.341c7.055-14.421 17.155-25.263 29.059-32.449 8.407-5.075 14.589-15.193 24.356-16.594 13.284-1.906 30.544 6.475 44.434 11.481 14.306 5.156 25.874 13.819 33.986 24.44-11.035-61.752-110.046-84.208-144.138-14.518-25.36 51.839-37.69 106.141-42.262 159.279-6.352 73.835 6.248 144.693 37.453 210.608.562 1.187 1.168 2.344 1.795 3.486-46.411-116.626-31.626-249.774 15.317-345.733z" fill="#ffe188"/><path d="m218.993 389.72c-15.125-46.757-24.193-95.52-20.684-147.085 2.525-37.11 9.335-75.034 23.34-111.238 10.39-26.857 32.741-35.94 54.04-26.233 21.3 9.707 31.073 28.759 22.528 52.955-16.172 45.789-35.134 126.12-2.743 194.655 38.362 81.167-56.228 99.555-76.481 36.946z" fill="#ff8257"/><ellipse cx="256.604" cy="160.468" fill="#ffe188" rx="15.162" ry="15.043"/><ellipse cx="238.684" cy="255.57" fill="#ffe188" rx="15.162" ry="15.043"/><ellipse cx="258.62" cy="371.057" fill="#ffe188" rx="15.162" ry="15.043"/><ellipse cx="278.692" cy="60.201" fill="#ffe188" rx="5.005" ry="3.833"/></svg>