<svg height="512pt" viewBox="0 -10 512.00151 512" width="512pt" xmlns="http://www.w3.org/2000/svg"><path d="m481.035156 469.59375c36.347656-34.5 29.160156-88.558594-51.195312-163.730469-80.351563-75.167969-63.503906-164.164062-160.707032-240.628906-10.796874-8.496094-21.8125-15.835937-32.90625-22.144531-59.742187-11.117188-111.1875 2.066406-129.160156 20.035156-28.835937 28.839844-46.65625 168.488281 138.675782 269.578125 134.472656 73.347656 146.214843 111.207031 186.628906 145.339844 2.078125 1.753906 4.183594 3.410156 6.308594 5.019531 17.753906.15625 32.929687-4.519531 42.355468-13.46875zm0 0" fill="#c9f3ff"/><g fill="#72d8ff"><path d="m282.378906 195.96875c21.28125-9.589844 8.480469-57.046875-13.136718-78.824219-20.335938-20.484375-63.445313-32.222656-71.832032-8.039062-6.636718 19.144531 29.496094 29.199219 41.546875 58.695312 13.65625 33.425781 30.742188 33.878907 43.421875 28.167969zm0 0"/><path d="m136.292969 139.289062c0 16.875-13.679688 30.550782-30.550781 30.550782-16.875 0-30.554688-13.675782-30.554688-30.550782s13.679688-30.554687 30.554688-30.554687c16.871093 0 30.550781 13.679687 30.550781 30.554687zm0 0"/><path d="m414.558594 374.53125c0 16.871094-13.679688 30.550781-30.554688 30.550781-16.871094 0-30.550781-13.679687-30.550781-30.550781 0-16.875 13.679687-30.554688 30.550781-30.554688 16.875 0 30.554688 13.679688 30.554688 30.554688zm0 0"/><path d="m330.183594 266.535156c0 11.042969-8.953125 20-20 20-11.042969 0-19.996094-8.957031-19.996094-20 0-11.046875 8.953125-20 19.996094-20 11.046875 0 20 8.953125 20 20zm0 0"/></g><path d="m439.554688 493.074219c-4.914063 0-10.003907-.335938-15.222657-1.027344-27.15625-3.578125-54.648437-16.136719-77.410156-35.363281-11.128906-9.398438-20.136719-19.03125-29.675781-29.230469-25.734375-27.523437-57.765625-61.773437-155.289063-114.96875-50.820312-27.722656-90.621093-60.476563-118.285156-97.351563-22.664063-30.210937-37.152344-63.613281-41.902344-96.597656-6.285156-43.625 5.132813-77.378906 19.230469-91.476562 18.121094-18.121094 58.308594-28.664063 102.375-26.859375 38.144531 1.5625 95.46875 12.75 151.941406 57.175781 54.144532 42.59375 74.199219 88.921875 93.589844 133.726562 16.480469 38.078126 32.046875 74.046876 67.769531 107.460938 49.851563 46.636719 75.195313 88.4375 75.324219 124.246094.074219 20.621094-8.027344 38.800781-24.078125 54.039062-11.140625 10.574219-28.289063 16.226563-48.367187 16.226563zm-326.070313-473.078125c-39.183594 0-67.761719 10.625-78.34375 21.203125-8.539063 8.539062-19.203125 35.425781-13.578125 74.484375 5.6875 39.492187 32.734375 115.292968 149.972656 179.242187 100.355469 54.738281 133.601563 90.296875 160.320313 118.867188 9.519531 10.179687 17.742187 18.972656 27.972656 27.613281 41.304687 34.882812 94.421875 39.824219 114.324219 20.9375 12.066406-11.453125 17.902344-24.363281 17.847656-39.464844-.105469-29.65625-23.964844-67.59375-68.988281-109.714844-38.757813-36.257812-55.890625-75.839843-72.460938-114.121093-19.25-44.476563-37.433593-86.484375-87.597656-125.953125-40.78125-32.078125-90.644531-50.871094-140.398437-52.90625-3.078126-.125-6.105469-.1875-9.070313-.1875zm0 0"/><path d="m270.617188 208.746094c-4.09375 0-8.085938-.773438-11.953126-2.316406-11.839843-4.726563-21.3125-16.125-28.964843-34.84375-4.714844-11.546876-14.464844-20.121094-23.066407-27.6875-11.445312-10.070313-24.421874-21.480469-18.667968-38.070313 3.429687-9.894531 11.292968-16.703125 22.144531-19.171875 21.929687-5 50.894531 7.996094 66.230469 23.445312 18.421875 18.554688 30.15625 51.242188 26.160156 72.859376-2.488281 13.441406-10.082031 19.449218-16.011719 22.121093-5.417969 2.445313-10.726562 3.664063-15.871093 3.664063zm-50.375-103.179688c-2.035157 0-3.949219.191406-5.691407.585938-5.324219 1.214844-6.90625 3.964844-7.691406 6.226562-1.257813 3.632813 4.066406 8.660156 12.984375 16.503906 9.746094 8.574219 21.875 19.242188 28.371094 35.136719 5.335937 13.058594 11.511718 21.300781 17.863281 23.835938 3.554687 1.417969 7.542969 1.089843 12.195313-1.003907.851562-.386718 3.457031-1.558593 4.558593-7.527343 2.800781-15.128907-7.058593-41.410157-20.683593-55.132813-10.773438-10.851562-28.867188-18.625-41.90625-18.625zm0 0"/><path d="m105.738281 179.839844c-22.359375 0-40.550781-18.191406-40.550781-40.550782 0-22.363281 18.191406-40.554687 40.550781-40.554687 22.363281 0 40.554688 18.191406 40.554688 40.554687 0 22.359376-18.191407 40.550782-40.554688 40.550782zm0-61.105469c-11.332031 0-20.550781 9.222656-20.550781 20.554687 0 11.332032 9.21875 20.550782 20.550781 20.550782 11.335938 0 20.554688-9.21875 20.554688-20.550782 0-11.335937-9.21875-20.554687-20.554688-20.554687zm0 0"/><path d="m384.003906 415.082031c-22.359375 0-40.550781-18.191406-40.550781-40.550781 0-22.363281 18.191406-40.554688 40.550781-40.554688 22.363282 0 40.554688 18.191407 40.554688 40.554688 0 22.359375-18.191406 40.550781-40.554688 40.550781zm0-61.105469c-11.332031 0-20.550781 9.222657-20.550781 20.554688s9.21875 20.554688 20.550781 20.554688c11.335938 0 20.554688-9.222657 20.554688-20.554688s-9.21875-20.554688-20.554688-20.554688zm0 0"/><path d="m269.445312 328.203125c-2.632812 0-5.210937-1.070313-7.082031-2.929687-1.859375-1.859376-2.917969-4.441407-2.917969-7.070313 0-2.640625 1.058594-5.210937 2.917969-7.070313 1.871094-1.871093 4.441407-2.929687 7.082031-2.929687 2.628907 0 5.199219 1.058594 7.066407 2.929687 1.863281 1.859376 2.921875 4.429688 2.921875 7.070313 0 2.628906-1.058594 5.210937-2.921875 7.070313-1.867188 1.859374-4.4375 2.929687-7.066407 2.929687zm0 0"/><path d="m250.558594 286.109375c-.5625-1.03125-14.078125-25.355469-43.097656-34.03125-24.164063-7.222656-33.117188-18.042969-34.007813-19.183594-.015625-.019531-.023437-.039062-.035156-.054687-3.027344-4.621094-9.226563-5.910156-13.84375-2.878906-4.621094 3.027343-5.910157 9.226562-2.878907 13.84375.058594.089843.125.171874.1875.257812l-.019531.011719c1.179688 1.761719 12.476563 17.480469 44.867188 27.164062 20.921875 6.257813 31.183593 24.292969 31.261719 24.429688 1.8125 3.332031 5.246093 5.222656 8.789062 5.222656 1.617188 0 3.253906-.390625 4.773438-1.21875 4.851562-2.636719 6.640624-8.710937 4.003906-13.5625zm0 0"/><path d="m128.019531 64.542969c-2.628906 0-5.210937-1.070313-7.070312-2.929688-1.867188-1.859375-2.929688-4.4375-2.929688-7.070312 0-2.628907 1.0625-5.207031 2.929688-7.066407 1.859375-1.863281 4.441406-2.933593 7.070312-2.933593 2.628907 0 5.210938 1.070312 7.070313 2.933593 1.859375 1.859376 2.929687 4.4375 2.929687 7.066407 0 2.632812-1.070312 5.210937-2.929687 7.070312-1.871094 1.859375-4.441406 2.929688-7.070313 2.929688zm0 0"/><path d="m114.519531 221.035156c-2.636719 0-5.207031-1.066406-7.070312-2.929687-1.867188-1.859375-2.929688-4.4375-2.929688-7.066407 0-2.632812 1.0625-5.210937 2.929688-7.070312 1.863281-1.859375 4.433593-2.929688 7.070312-2.929688 2.632813 0 5.210938 1.070313 7.070313 2.929688s2.929687 4.4375 2.929687 7.070312c0 2.628907-1.070312 5.207032-2.929687 7.066407-1.859375 1.863281-4.4375 2.929687-7.070313 2.929687zm0 0"/><path d="m64.023438 93.542969c-2.640626 0-5.210938-1.070313-7.070313-2.929688-1.871094-1.859375-2.929687-4.441406-2.929687-7.070312 0-2.628907 1.058593-5.210938 2.929687-7.070313 1.859375-1.859375 4.441406-2.929687 7.070313-2.929687 2.628906 0 5.210937 1.070312 7.070312 2.929687s2.929688 4.441406 2.929688 7.070313c0 2.628906-1.070313 5.210937-2.929688 7.070312s-4.441406 2.929688-7.070312 2.929688zm0 0"/><path d="m196.605469 190.539062c-2.636719 0-5.207031-1.070312-7.066407-2.929687-1.863281-1.859375-2.929687-4.441406-2.929687-7.070313 0-2.628906 1.066406-5.210937 2.929687-7.070312 1.859376-1.859375 4.429688-2.929688 7.066407-2.929688 2.632812 0 5.210937 1.070313 7.070312 2.929688s2.929688 4.441406 2.929688 7.070312c0 2.628907-1.070313 5.210938-2.929688 7.070313s-4.4375 2.929687-7.070312 2.929687zm0 0"/><path d="m455.003906 437.617188c-2.628906 0-5.207031-1.070313-7.066406-2.929688-1.871094-1.859375-2.929688-4.441406-2.929688-7.070312 0-2.640626 1.058594-5.21875 2.929688-7.078126 1.859375-1.859374 4.429688-2.921874 7.066406-2.921874 2.632813 0 5.210938 1.0625 7.070313 2.921874 1.859375 1.867188 2.929687 4.4375 2.929687 7.078126 0 2.628906-1.070312 5.199218-2.929687 7.070312-1.859375 1.859375-4.4375 2.929688-7.070313 2.929688zm0 0"/><path d="m363.007812 316.53125c-2.628906 0-5.207031-1.070312-7.066406-2.929688-1.871094-1.859374-2.929687-4.4375-2.929687-7.070312 0-2.628906 1.058593-5.207031 2.929687-7.066406 1.859375-1.863282 4.429688-2.929688 7.066406-2.929688 2.632813 0 5.210938 1.066406 7.070313 2.929688 1.859375 1.859375 2.929687 4.4375 2.929687 7.066406 0 2.632812-1.070312 5.210938-2.929687 7.070312-1.859375 1.859376-4.4375 2.929688-7.070313 2.929688zm0 0"/><path d="m310.183594 296.535156c-16.539063 0-29.996094-13.460937-29.996094-30 0-16.542968 13.457031-30 29.996094-30 16.542968 0 30 13.457032 30 30 0 16.539063-13.457032 30-30 30zm0-40c-5.511719 0-10 4.484375-10 10 0 5.511719 4.488281 10 10 10 5.515625 0 10-4.488281 10-10 0-5.515625-4.484375-10-10-10zm0 0"/></svg>